<svg xmlns="http://www.w3.org/2000/svg" viewBox="0 0 512 512" width="512" height="512">
  <rect width="512" height="512" rx="100" fill="#08101e"/>
  <radialGradient id="bg" cx="50%" cy="40%">
    <stop offset="0%" stop-color="#378ADD" stop-opacity="0.2"/>
    <stop offset="100%" stop-color="#08101e" stop-opacity="0"/>
  </radialGradient>
  <rect width="512" height="512" rx="100" fill="url(#bg)"/>

  <!-- Antennes -->
  <line x1="188" y1="110" x2="158" y2="52" stroke="#378ADD" stroke-width="10" stroke-linecap="round"/>
  <circle cx="154" cy="44" r="18" fill="#FAC775" stroke="#EF9F27" stroke-width="4"/>
  <line x1="324" y1="110" x2="354" y2="52" stroke="#378ADD" stroke-width="10" stroke-linecap="round"/>
  <circle cx="358" cy="44" r="18" fill="#FAC775" stroke="#EF9F27" stroke-width="4"/>

  <!-- Casque arrière -->
  <circle cx="256" cy="216" r="148" fill="#0a2d6e"/>

  <!-- Hublot -->
  <circle cx="256" cy="216" r="128" fill="#B5D4F4" stroke="#378ADD" stroke-width="7"/>

  <!-- Reflet -->
  <radialGradient id="vg" cx="40%" cy="36%" r="55%">
    <stop offset="0%" stop-color="white" stop-opacity="0.20"/>
    <stop offset="100%" stop-color="#B5D4F4" stop-opacity="0"/>
  </radialGradient>
  <circle cx="256" cy="216" r="128" fill="url(#vg)"/>

  <!-- Yeux -->
  <ellipse cx="196" cy="196" rx="37" ry="44" fill="white" stroke="#378ADD" stroke-width="3"/>
  <ellipse cx="316" cy="196" rx="37" ry="44" fill="white" stroke="#378ADD" stroke-width="3"/>
  <circle cx="196" cy="202" r="26" fill="#0a2d6e"/>
  <circle cx="316" cy="202" r="26" fill="#0a2d6e"/>
  <circle cx="196" cy="202" r="13" fill="#00d4ff"/>
  <circle cx="316" cy="202" r="13" fill="#00d4ff"/>
  <circle cx="204" cy="190" r="8" fill="white" opacity="0.9"/>
  <circle cx="324" cy="190" r="8" fill="white" opacity="0.9"/>

  <!-- Sourcils -->
  <path d="M162 152 Q196 134 230 152" fill="none" stroke="#0a2d6e" stroke-width="7" stroke-linecap="round"/>
  <path d="M282 152 Q316 134 350 152" fill="none" stroke="#0a2d6e" stroke-width="7" stroke-linecap="round"/>

  <!-- Sourire -->
  <path d="M196 262 Q256 300 316 262" fill="none" stroke="#0a2d6e" stroke-width="8" stroke-linecap="round"/>

  <!-- Joues -->
  <ellipse cx="148" cy="248" rx="30" ry="18" fill="#FAC775" opacity="0.55"/>
  <ellipse cx="364" cy="248" rx="30" ry="18" fill="#FAC775" opacity="0.55"/>

  <!-- Bord casque bas -->
  <rect x="130" y="322" width="252" height="36" rx="18" fill="#0a2d6e" stroke="#378ADD" stroke-width="3"/>

  <!-- Oreilles -->
  <rect x="98" y="180" width="28" height="52" rx="14" fill="#1a6fc4" stroke="#378ADD" stroke-width="2.5"/>
  <rect x="386" y="180" width="28" height="52" rx="14" fill="#1a6fc4" stroke="#378ADD" stroke-width="2.5"/>

  <!-- Corps -->
  <rect x="148" y="360" width="216" height="112" rx="36" fill="#1a6fc4" stroke="#378ADD" stroke-width="3"/>

  <!-- Panneau torse -->
  <rect x="172" y="376" width="168" height="76" rx="20" fill="#0a2d6e" opacity="0.8"/>

  <!-- Étoile sur torse -->
  <polygon points="256,384 262,402 282,402 267,413 273,431 256,420 239,431 245,413 230,402 250,402" fill="#FAC775"/>

  <!-- Bras -->
  <rect x="100" y="368" width="44" height="84" rx="22" fill="#1a6fc4" stroke="#378ADD" stroke-width="2.5"/>
  <ellipse cx="122" cy="458" rx="26" ry="18" fill="#1a6fc4" stroke="#378ADD" stroke-width="2.5"/>
  <rect x="368" y="368" width="44" height="84" rx="22" fill="#1a6fc4" stroke="#378ADD" stroke-width="2.5"/>
  <ellipse cx="390" cy="458" rx="26" ry="18" fill="#1a6fc4" stroke="#378ADD" stroke-width="2.5"/>

  <!-- Roues -->
  <ellipse cx="174" cy="494" rx="42" ry="22" fill="#0a2d6e" stroke="#378ADD" stroke-width="3"/>
  <ellipse cx="174" cy="494" rx="20" ry="10" fill="#1a6fc4" opacity="0.7"/>
  <ellipse cx="338" cy="494" rx="42" ry="22" fill="#0a2d6e" stroke="#378ADD" stroke-width="3"/>
  <ellipse cx="338" cy="494" rx="20" ry="10" fill="#1a6fc4" opacity="0.7"/>
</svg>
